<?xml version="1.0" encoding="UTF-8" standalone="no"?>
<!-- Uploaded to: SVG Repo, www.svgrepo.com, Generator: SVG Repo Mixer Tools -->

<svg
   width="800px"
   height="800px"
   viewBox="0 0 128 128"
   aria-hidden="true"
   role="img"
   class="iconify iconify--noto"
   preserveAspectRatio="xMidYMid meet"
   version="1.1"
   id="svg20"
   sodipodi:docname="wine-glass-svgrepo-com.svg"
   inkscape:export-filename="wine-glass-svgrepo-com.png"
   inkscape:export-xdpi="61.439999"
   inkscape:export-ydpi="61.439999"
   inkscape:version="1.3.2 (091e20e, 2023-11-25, custom)"
   xmlns:inkscape="http://www.inkscape.org/namespaces/inkscape"
   xmlns:sodipodi="http://sodipodi.sourceforge.net/DTD/sodipodi-0.dtd"
   xmlns="http://www.w3.org/2000/svg"
   xmlns:svg="http://www.w3.org/2000/svg">
  <defs
     id="defs20" />
  <sodipodi:namedview
     id="namedview20"
     pagecolor="#ffffff"
     bordercolor="#000000"
     borderopacity="0.25"
     inkscape:showpageshadow="2"
     inkscape:pageopacity="0.0"
     inkscape:pagecheckerboard="0"
     inkscape:deskcolor="#d1d1d1"
     inkscape:zoom="0.456875"
     inkscape:cx="303.14637"
     inkscape:cy="425.71819"
     inkscape:window-width="1920"
     inkscape:window-height="1001"
     inkscape:window-x="-9"
     inkscape:window-y="-9"
     inkscape:window-maximized="1"
     inkscape:current-layer="svg20" />
  <radialGradient
     id="IconifyId17ecdb2904d178eab21458"
     cx="63.951"
     cy="49.576"
     r="25.281"
     gradientTransform="matrix(-0.00271,1,-1.0419,-0.00283,115.778,-14.234)"
     gradientUnits="userSpaceOnUse">
    <stop
       offset=".404"
       stop-color="#af0d1a"
       id="stop14" />
    <stop
       offset=".535"
       stop-color="#ab0c19"
       id="stop15" />
    <stop
       offset=".667"
       stop-color="#9f0b17"
       id="stop16" />
    <stop
       offset=".801"
       stop-color="#8a0813"
       id="stop17" />
    <stop
       offset=".935"
       stop-color="#6e050d"
       id="stop18" />
    <stop
       offset=".96"
       stop-color="#68040c"
       id="stop19" />
  </radialGradient>
  <g
     id="g20"
     transform="matrix(0.8909495,-0.73646792,0.75982159,0.86356552,-41.779082,55.758247)">
    <path
       d="m 43.34,11.83 11.98,6.53 17.92,0.49 11.11,-6.5 1.58,4.22 c 0,0 6.99,18.86 6.46,29.41 -0.49,9.88 -1.7,18.62 -10.81,26.51 -6.86,5.93 -13.71,6.46 -13.71,6.46 L 68,99.13 c 0,0 8.97,0.4 14.24,3.82 4.76,3.09 5.54,6.07 5.54,8.04 0,1.98 -1.85,12.13 -24.26,11.87 -22.41,-0.26 -23.74,-11.21 -23.74,-13.19 0,-1.98 2.12,-5.79 8.44,-8.18 5.93,-2.24 11.08,-1.98 11.08,-1.98 V 78.56 c 0,0 -8.31,-2.11 -14.64,-8.18 -3.91,-3.75 -10.42,-12.26 -9.49,-26.11 0.8,-12.14 8.17,-32.44 8.17,-32.44 z"
       opacity="0.5"
       fill="#ffffff"
       id="path1" />
    <path
       d="m 43.34,11.83 4.75,-4.35 7.38,-2.37 17.01,0.13 7.78,3.3 4.09,3.82 1.58,4.22 c 0,0 6.99,18.86 6.46,29.41 -0.49,9.88 -1.7,18.62 -10.81,26.51 -6.86,5.93 -13.71,6.46 -13.71,6.46 l 0.06,20.14 c 0,0 9.02,1.03 14.3,4.46 4.76,3.09 5.55,5.47 5.55,7.45 0,1.98 -1.85,12.13 -24.26,11.87 -22.41,-0.26 -23.74,-11.21 -23.74,-13.19 0,-1.98 2.12,-5.79 8.44,-8.18 5.93,-2.24 11.01,-2.4 11.01,-2.4 L 59.3,78.57 c 0,0 -8.31,-2.11 -14.64,-8.18 -3.91,-3.75 -10.42,-12.26 -9.49,-26.11 0.8,-12.15 8.17,-32.45 8.17,-32.45 z"
       opacity="0.7"
       fill="#e0e0e0"
       id="path2" />
    <path
       d="M 58.59,79.03 C 58.3,78.94 51.82,77.37 47.42,73.93 38.86,67.23 34.8,59.84 34.28,49.98 33.97,44.16 36.36,34.27 38.06,27.34 39.8,20.28 41.9,15 41.92,14.94 c 0,0 0.28,-0.8 0.58,-0.65 0.63,0.32 0,3.1 0,3.1 -0.48,1.78 -0.94,3.46 -2.64,10.42 -1.67,6.81 -3.86,16.5 -3.57,22.05 0.49,9.23 4.3,16.17 12.37,22.48 4.1,3.21 9.31,4.47 10.02,4.81 0.71,0.34 1.63,0.5 1.5,1.41 -0.14,0.94 -1.59,0.47 -1.59,0.47 z"
       fill="#d4d4d4"
       id="path3" />
    <path
       d="M 68.62,79.28 C 67.87,79.35 67.14,79.22 67.08,78.49 67,77.59 68.12,77.53 68.12,77.53 68.86,77.26 72.65,76.95 76.4,74.7 86.97,68.36 92.09,58.41 91.43,45.51 90.51,27.72 83.53,14.17 83.46,14.04 l 1.32,-1.94 c 0.07,0.14 7.7,15.08 8.65,33.31 0.71,13.69 -4.4,24.3 -15.65,31.04 -4.1,2.46 -8.77,2.79 -9.16,2.83 z"
       fill="#9e9e9e"
       id="path4" />
    <path
       d="m 65.13,21.92 c -0.25,0 -0.5,0 -0.75,-0.01 -8.8,-0.13 -16.32,-2.61 -19.96,-6.13 -1.3,-1.25 -1.48,-2.12 -1.55,-3.5 -0.13,-2.37 2.69,-8.29 21.06,-8.19 12.11,0.06 21.1,3.81 21.15,8.51 0.02,1.42 -0.23,2.58 -1.58,3.92 -3.45,3.39 -10.29,5.4 -18.37,5.4 z M 63.03,6.58 c -12.04,0.1 -17.2,3.42 -17.15,5.57 0.01,0.55 0.05,0.86 0.71,1.54 2.4,2.5 8.85,5.08 17.84,5.21 8.96,0.15 14.65,-2.25 16.97,-4.54 0.75,-0.73 1.13,-0.97 1.13,-1.55 0,-2.27 -4.87,-5.94 -17.75,-6.22 -0.59,0 -1.18,-0.01 -1.75,-0.01 z"
       fill="#c8c8c8"
       id="path5" />
    <path
       d="m 65.32,19.74 c -0.81,0 -1.66,-0.02 -2.54,-0.07 -14,-0.74 -16.72,-6.35 -16.85,-6.61 -0.24,-0.5 -0.35,-1.47 0.03,-1.58 0.51,-0.15 0.78,0.3 1.3,0.78 0.84,0.78 3.87,4.83 16.52,5.12 12.4,0.29 16.39,-3.49 17.12,-4.15 0.55,-0.5 1.13,-1.54 1.59,-1.24 0.46,0.3 0.22,1.5 -0.05,1.97 -0.42,0.72 -3.55,5.78 -17.12,5.78 z"
       fill="#ffffff"
       id="path6" />
    <path
       d="m 63.79,79.74 c -2.15,0 -1.71,1.65 -1.82,12.62 -0.08,8.75 0.83,10.31 1.73,10.4 0.91,0.08 1.73,-0.58 1.73,-9.82 0.01,-10.72 0.34,-13.2 -1.64,-13.2 z"
       fill="#9e9e9e"
       id="path7" />
    <path
       d="m 67.11,100.05 c -0.82,0.07 0.07,1.86 -1.04,3.28 -0.88,1.12 -2.53,1.79 -2.46,3.05 0.07,1.27 6.55,0.45 6.55,-1.94 0,-0.93 -0.68,-1.58 -1.34,-2.46 -0.66,-0.88 -1.3,-1.97 -1.71,-1.93 z"
       fill="#ffffff"
       id="path8" />
    <path
       d="m 52.14,109.06 c 0,0 2.85,3.82 11.63,3.9 8.86,0.08 11.05,-2.6 11.38,-3.66 0.24,-0.8 -2.76,-4.99 -3.13,-4.92 -0.37,0.07 -1.34,3.96 -8.19,3.71 -6.85,-0.25 -7.03,-2.94 -7.58,-3.45 -0.44,-0.41 -4.11,4.42 -4.11,4.42 z"
       fill="#9e9e9e"
       id="path9" />
    <path
       d="m 43.95,107.2 c -2.22,0.29 -2.32,2.87 -0.89,5.21 2.9,4.77 12.53,8.03 13.03,5.44 0.45,-2.31 -4.61,-2.9 -4.1,-6.78 0.37,-2.83 5.44,-5.44 4.02,-6.93 -1.41,-1.49 -3.57,2.01 -6.48,2.68 -2.54,0.59 -3.87,0.16 -5.58,0.38 z"
       fill="#ffffff"
       id="path10" />
    <path
       d="m 76.12,103.4 c -1.24,0.99 2.46,2.01 2.31,5.06 -0.15,3.05 -3.2,4.37 -2.61,5.21 0.89,1.27 6.14,-1.42 5.96,-5.59 -0.15,-3.41 -4.54,-5.57 -5.66,-4.68 z"
       fill="#cacaca"
       id="path11" />
    <path
       d="m 74.78,117.48 c 0.45,1.41 6.37,0.8 9.16,-3.2 2.9,-4.17 0.89,-7.67 -0.22,-7.3 -1.12,0.37 0.45,2.98 -2.38,5.73 -2.84,2.75 -7.06,3.19 -6.56,4.77 z"
       fill="#ffffff"
       id="path12" />
    <path
       d="m 39.79,109.54 c -0.26,-0.24 -0.73,2.12 0.06,4.06 0.67,1.64 4.1,10.2 24.65,10.35 22.86,0.17 24.03,-9.63 23.74,-12.37 -0.19,-1.81 -0.54,-2.43 -0.72,-2.43 -0.17,-0.01 -0.35,1.6 -0.5,2.47 -0.48,2.72 -3.16,9.58 -22.15,9.73 -17.28,0.14 -22.34,-6.93 -23.23,-8.19 -0.63,-0.9 -1.7,-3.48 -1.85,-3.62 z"
       fill="#9e9e9e"
       id="path13" />
    <path
       d="m 38.26,47.89 3.07,8.36 11.26,6.06 14.41,2.72 14.33,-12.45 5.03,-7.42 c 0,0 -4.94,-2.1 -10.52,-2.92 -8.7,-1.28 -16.09,-1.6 -24.79,0.02 -10.69,1.99 -12.79,5.63 -12.79,5.63 z"
       fill="#cc1935"
       id="path14" />
    <path
       d="m 57.96,60.51 c 10.06,0.34 11.43,-5.54 19.62,-11.34 8.19,-5.8 11.51,-4.09 11.51,-4.09 0,0 2.75,12.47 -6.74,22.34 -8.27,8.61 -23.42,11.2 -35.38,1.07 -8.87,-7.51 -8.71,-20.6 -8.71,-20.6 0,0 6.99,12.19 19.7,12.62 z"
       fill="url(#IconifyId17ecdb2904d178eab21458)"
       id="path19"
       style="fill:url(#IconifyId17ecdb2904d178eab21458)" />
    <path
       d="m 45.09,20.08 c 0,0 -1.41,3.97 -3.19,11.93 -1.53,6.84 -2.16,11.19 -2.16,11.19 0,0 3.22,-1.6 6.81,-2.54 3.25,-0.85 6.06,-0.68 6.06,-0.68 0,0 -0.09,-5.21 0.34,-8.97 0.35,-3.1 1.11,-7.09 1.11,-7.09 0,0 -2.82,-0.68 -4.53,-1.45 -1.71,-0.77 -4.44,-2.39 -4.44,-2.39 z"
       fill="#ffffff"
       id="path20" />
  </g>
</svg>
